<svg width="112" height="19" viewBox="0 0 112 19" fill="none" xmlns="http://www.w3.org/2000/svg">
<path d="M14.67 10.19C14.04 12.65 11.13 14.36 7.74 14.36C3.18 14.36 0.6 11.3 0.6 7.49C0.6 3.71 3.18 0.649999 7.74 0.649999C11.7 0.649999 14.46 2.99 14.73 6.11V8.36H3.66C3.9 10.49 5.13 11.69 7.74 11.69C9.45 11.69 11.1 11.15 11.49 10.19H14.67ZM3.75 5.99H11.73C11.58 4.25 10.02 3.32 7.74 3.32C5.4 3.32 4.17 4.28 3.75 5.99ZM16.7587 14.3C17.4487 14.96 19.2787 15.71 21.8887 15.71C25.9687 15.71 26.0588 13.67 25.9988 12.38V12.41C24.9787 13.52 23.4787 14.36 21.1687 14.36C16.0387 14.36 15.1687 9.71 15.1687 7.67V7.37C15.1687 5.33 16.0387 0.679999 21.1687 0.679999C23.4787 0.679999 24.9787 1.52 25.9988 2.63V0.679999H28.9988V11.93C28.9988 12.05 29.7188 18.41 21.8887 18.41C18.5587 18.41 16.2787 17.33 15.1687 16.55L16.7587 14.3ZM18.1687 7.67C18.1687 10.16 19.1887 11.24 21.1687 11.57C23.0288 11.87 24.7087 11.51 25.3387 10.13C25.6688 9.41 25.7888 8.57 25.7888 7.55C25.7888 6.65 25.5188 5.48 25.2188 4.82C24.6487 3.56 22.9388 3.17 21.1687 3.47C19.1587 3.8 18.1687 4.85 18.1687 7.37V7.67ZM37.6603 11.66C40.5703 11.66 41.7703 10.13 41.7703 7.52C41.7703 4.91 40.5703 3.38 37.6603 3.38C34.7203 3.38 33.5203 4.91 33.5203 7.52C33.5203 10.13 34.7203 11.66 37.6603 11.66ZM30.5203 7.52C30.5203 3.77 33.0703 0.679999 37.6603 0.679999C42.1903 0.679999 44.7703 3.77 44.7703 7.52C44.7703 11.27 42.1903 14.36 37.6603 14.36C33.0703 14.36 30.5203 11.27 30.5203 7.52ZM46.575 0.56H49.575V2.33C50.325 1.31 51.465 0.62 53.205 0.62C55.305 0.62 56.535 1.67 57.195 3.14C57.885 1.7 59.085 0.62 61.425 0.62C64.785 0.62 65.985 3.35 65.985 6.2V14.06H62.985V6.2C62.985 4.43 62.565 3.71 61.425 3.32C60.255 2.93 58.815 3.65 57.975 5.03C57.795 5.45 57.795 5.75 57.765 6.26V14.06H54.765V6.2C54.765 4.43 54.375 3.65 53.205 3.32C51.945 2.96 50.745 3.53 49.935 4.67C49.635 5.3 49.605 5.63 49.575 6.26V14.06H46.575V0.56ZM75.2201 11.66C78.1301 11.66 79.3301 10.13 79.3301 7.52C79.3301 4.91 78.1301 3.38 75.2201 3.38C72.2801 3.38 71.0801 4.91 71.0801 7.52C71.0801 10.13 72.2801 11.66 75.2201 11.66ZM68.0801 7.52C68.0801 3.77 70.6301 0.679999 75.2201 0.679999C79.7501 0.679999 82.3301 3.77 82.3301 7.52C82.3301 11.27 79.7501 14.36 75.2201 14.36C70.6301 14.36 68.0801 11.27 68.0801 7.52ZM84.8548 14.3C85.5448 14.96 87.3448 16.01 89.9548 16.01C94.2148 16.01 94.0948 12.14 94.0648 10.7V10.61C93.0448 11.75 91.5448 12.86 89.2648 12.86C84.1348 12.86 83.5648 9.02 83.5648 6.98V0.649999H86.5648V6.98C86.5648 8.75 87.4948 9.89 89.2648 10.16C91.4548 10.49 94.0648 8.54 94.0648 6.8V0.649999H97.0648V10.7C97.0348 13.34 96.4048 18.41 89.9548 18.41C86.6248 18.41 84.3448 17.33 83.2348 16.55L84.8548 14.3ZM111.794 0.679999V14.06H108.794V12.41C107.774 13.52 105.974 14.36 103.664 14.36C98.5341 14.36 97.6641 9.71 97.6641 7.67V7.37C97.6641 5.33 98.5341 0.679999 103.664 0.679999C105.974 0.679999 107.774 1.52 108.794 2.63V0.679999H111.794ZM100.664 7.37C100.664 10.46 101.984 11.48 103.964 11.87C105.524 12.17 107.204 11.81 108.134 10.13C108.494 9.44 108.584 8.57 108.584 7.55V7.49C108.584 6.65 108.374 5.45 108.014 4.82C107.324 3.62 105.614 3.08 104.144 3.08C102.104 3.08 100.664 4.85 100.664 7.37Z" fill="#F0424B"/>
</svg>
