<svg width="260" height="43" viewBox="0 0 260 43" fill="none" xmlns="http://www.w3.org/2000/svg">
<path d="M33.23 23.11C31.76 28.85 24.97 32.84 17.06 32.84C6.42 32.84 0.4 25.7 0.4 16.81C0.4 7.99 6.42 0.849998 17.06 0.849998C26.3 0.849998 32.74 6.31 33.37 13.59V18.84H7.54C8.1 23.81 10.97 26.61 17.06 26.61C21.05 26.61 24.9 25.35 25.81 23.11H33.23ZM7.75 13.31H26.37C26.02 9.25 22.38 7.08 17.06 7.08C11.6 7.08 8.73 9.32 7.75 13.31ZM38.1037 32.7C39.7137 34.24 43.9837 35.99 50.0737 35.99C59.5937 35.99 59.8038 31.23 59.6637 28.22V28.29C57.2837 30.88 53.7837 32.84 48.3937 32.84C36.4237 32.84 34.3937 21.99 34.3937 17.23V16.53C34.3937 11.77 36.4237 0.919998 48.3937 0.919998C53.7837 0.919998 57.2837 2.88 59.6637 5.47V0.919998H66.6637V27.17C66.6637 27.45 68.3438 42.29 50.0737 42.29C42.3037 42.29 36.9837 39.77 34.3937 37.95L38.1037 32.7ZM41.3937 17.23C41.3937 23.04 43.7737 25.56 48.3937 26.33C52.7337 27.03 56.6537 26.19 58.1237 22.97C58.8937 21.29 59.1738 19.33 59.1738 16.95C59.1738 14.85 58.5437 12.12 57.8438 10.58C56.5137 7.64 52.5238 6.73 48.3937 7.43C43.7037 8.2 41.3937 10.65 41.3937 16.53V17.23ZM86.8741 26.54C93.6641 26.54 96.4641 22.97 96.4641 16.88C96.4641 10.79 93.6641 7.22 86.8741 7.22C80.0141 7.22 77.2141 10.79 77.2141 16.88C77.2141 22.97 80.0141 26.54 86.8741 26.54ZM70.2141 16.88C70.2141 8.13 76.1641 0.919998 86.8741 0.919998C97.4441 0.919998 103.464 8.13 103.464 16.88C103.464 25.63 97.4441 32.84 86.8741 32.84C76.1641 32.84 70.2141 25.63 70.2141 16.88ZM107.675 0.639999H114.675V4.77C116.425 2.39 119.085 0.779999 123.145 0.779999C128.045 0.779999 130.915 3.23 132.455 6.66C134.065 3.3 136.865 0.779999 142.325 0.779999C150.165 0.779999 152.965 7.15 152.965 13.8V32.14H145.965V13.8C145.965 9.67 144.985 7.99 142.325 7.08C139.595 6.17 136.235 7.85 134.275 11.07C133.855 12.05 133.855 12.75 133.785 13.94V32.14H126.785V13.8C126.785 9.67 125.875 7.85 123.145 7.08C120.205 6.24 117.405 7.57 115.515 10.23C114.815 11.7 114.745 12.47 114.675 13.94V32.14H107.675V0.639999ZM174.514 26.54C181.304 26.54 184.104 22.97 184.104 16.88C184.104 10.79 181.304 7.22 174.514 7.22C167.654 7.22 164.854 10.79 164.854 16.88C164.854 22.97 167.654 26.54 174.514 26.54ZM157.854 16.88C157.854 8.13 163.804 0.919998 174.514 0.919998C185.084 0.919998 191.104 8.13 191.104 16.88C191.104 25.63 185.084 32.84 174.514 32.84C163.804 32.84 157.854 25.63 157.854 16.88ZM196.994 32.7C198.604 34.24 202.804 36.69 208.894 36.69C218.834 36.69 218.554 27.66 218.484 24.3V24.09C216.104 26.75 212.604 29.34 207.284 29.34C195.314 29.34 193.984 20.38 193.984 15.62V0.849998H200.984V15.62C200.984 19.75 203.154 22.41 207.284 23.04C212.394 23.81 218.484 19.26 218.484 15.2V0.849998H225.484V24.3C225.414 30.46 223.944 42.29 208.894 42.29C201.124 42.29 195.804 39.77 193.214 37.95L196.994 32.7ZM259.853 0.919998V32.14H252.853V28.29C250.473 30.88 246.273 32.84 240.883 32.84C228.913 32.84 226.883 21.99 226.883 17.23V16.53C226.883 11.77 228.913 0.919998 240.883 0.919998C246.273 0.919998 250.473 2.88 252.853 5.47V0.919998H259.853ZM233.883 16.53C233.883 23.74 236.963 26.12 241.583 27.03C245.223 27.73 249.143 26.89 251.313 22.97C252.153 21.36 252.363 19.33 252.363 16.95V16.81C252.363 14.85 251.873 12.05 251.033 10.58C249.423 7.78 245.433 6.52 242.003 6.52C237.243 6.52 233.883 10.65 233.883 16.53Z" fill="#F0424B"/>
</svg>
