<svg width="22" height="22" viewBox="0 0 22 22" fill="none" xmlns="http://www.w3.org/2000/svg">
<g clip-path="url(#clip0_14_4439)">
<path d="M20.1663 18.3335H1.83301V16.5002H2.74967V10.1119C2.74967 5.53958 6.44384 1.8335 10.9997 1.8335C15.5555 1.8335 19.2497 5.53958 19.2497 10.1119V16.5002H20.1663V18.3335ZM4.58301 16.5002H17.4163V10.1119C17.4163 6.5525 14.5435 3.66683 10.9997 3.66683C7.45584 3.66683 4.58301 6.5525 4.58301 10.1119V16.5002ZM8.70801 19.2502H13.2913C13.2913 19.858 13.0499 20.4408 12.6201 20.8706C12.1904 21.3004 11.6075 21.5418 10.9997 21.5418C10.3919 21.5418 9.80899 21.3004 9.37922 20.8706C8.94945 20.4408 8.70801 19.858 8.70801 19.2502Z" fill="#121313"/>
</g>
<defs>
<clipPath id="clip0_14_4439">
<rect width="22" height="22" fill="white"/>
</clipPath>
</defs>
</svg>
