<svg width="14" height="16" viewBox="0 0 14 16" fill="none" xmlns="http://www.w3.org/2000/svg">
<path d="M7.08333 16C7.95417 16 8.66667 15.2875 8.66667 14.4167H5.5C5.5 15.2875 6.2125 16 7.08333 16ZM11.8333 11.25V7.29167C11.8333 4.86125 10.5429 2.82667 8.27083 2.28833V1.75C8.27083 1.09292 7.74042 0.5625 7.08333 0.5625C6.42625 0.5625 5.89583 1.09292 5.89583 1.75V2.28833C3.63167 2.82667 2.33333 4.85333 2.33333 7.29167V11.25L0.75 12.8333V13.625H13.4167V12.8333L11.8333 11.25ZM10.25 12.0417H3.91667V7.29167C3.91667 5.32833 5.11208 3.72917 7.08333 3.72917C9.05458 3.72917 10.25 5.32833 10.25 7.29167V12.0417Z" fill="#727272"/>
</svg>
