<svg width="34" height="30" viewBox="0 0 34 30" fill="none" xmlns="http://www.w3.org/2000/svg">
<path d="M13.3797 3.33333L10.0463 6.66667H3.66634V26.6667H30.333V6.66667H23.953L20.6197 3.33333H13.3797ZM11.9997 0H21.9997L25.333 3.33333H31.9997C32.4417 3.33333 32.8656 3.50893 33.1782 3.82149C33.4907 4.13405 33.6663 4.55797 33.6663 5V28.3333C33.6663 28.7754 33.4907 29.1993 33.1782 29.5118C32.8656 29.8244 32.4417 30 31.9997 30H1.99967C1.55765 30 1.13372 29.8244 0.821163 29.5118C0.508602 29.1993 0.333008 28.7754 0.333008 28.3333V5C0.333008 4.55797 0.508602 4.13405 0.821163 3.82149C1.13372 3.50893 1.55765 3.33333 1.99967 3.33333H8.66634L11.9997 0ZM16.9997 25C14.5685 25 12.2369 24.0342 10.5179 22.3151C8.79878 20.5961 7.83301 18.2645 7.83301 15.8333C7.83301 13.4022 8.79878 11.0706 10.5179 9.35152C12.2369 7.63244 14.5685 6.66667 16.9997 6.66667C19.4308 6.66667 21.7624 7.63244 23.4815 9.35152C25.2006 11.0706 26.1663 13.4022 26.1663 15.8333C26.1663 18.2645 25.2006 20.5961 23.4815 22.3151C21.7624 24.0342 19.4308 25 16.9997 25ZM16.9997 21.6667C18.5468 21.6667 20.0305 21.0521 21.1245 19.9581C22.2184 18.8642 22.833 17.3804 22.833 15.8333C22.833 14.2862 22.2184 12.8025 21.1245 11.7085C20.0305 10.6146 18.5468 10 16.9997 10C15.4526 10 13.9688 10.6146 12.8749 11.7085C11.7809 12.8025 11.1663 14.2862 11.1663 15.8333C11.1663 17.3804 11.7809 18.8642 12.8749 19.9581C13.9688 21.0521 15.4526 21.6667 16.9997 21.6667Z" fill="#969C9C"/>
</svg>
