<svg width="22" height="22" viewBox="0 0 22 22" fill="none" xmlns="http://www.w3.org/2000/svg">
<g clip-path="url(#clip0_14_4444)">
<path d="M3.66699 20.1665C3.66699 18.2216 4.43961 16.3563 5.81488 14.9811C7.19014 13.6058 9.0554 12.8332 11.0003 12.8332C12.9452 12.8332 14.8105 13.6058 16.1858 14.9811C17.561 16.3563 18.3337 18.2216 18.3337 20.1665H16.5003C16.5003 18.7078 15.9209 17.3089 14.8894 16.2774C13.858 15.246 12.459 14.6665 11.0003 14.6665C9.54164 14.6665 8.14269 15.246 7.11124 16.2774C6.07979 17.3089 5.50033 18.7078 5.50033 20.1665H3.66699ZM11.0003 11.9165C7.96158 11.9165 5.50033 9.45525 5.50033 6.4165C5.50033 3.37775 7.96158 0.916504 11.0003 0.916504C14.0391 0.916504 16.5003 3.37775 16.5003 6.4165C16.5003 9.45525 14.0391 11.9165 11.0003 11.9165ZM11.0003 10.0832C13.0262 10.0832 14.667 8.44234 14.667 6.4165C14.667 4.39067 13.0262 2.74984 11.0003 2.74984C8.97449 2.74984 7.33366 4.39067 7.33366 6.4165C7.33366 8.44234 8.97449 10.0832 11.0003 10.0832Z" fill="#121313"/>
</g>
<defs>
<clipPath id="clip0_14_4444">
<rect width="22" height="22" fill="white"/>
</clipPath>
</defs>
</svg>
