<svg width="15" height="15" viewBox="0 0 15 15" fill="none" xmlns="http://www.w3.org/2000/svg">
<path d="M7.08333 0C3.17333 0 0 3.17333 0 7.08333C0 10.9933 3.17333 14.1667 7.08333 14.1667C10.9933 14.1667 14.1667 10.9933 14.1667 7.08333C14.1667 3.17333 10.9933 0 7.08333 0ZM3.78958 11.6875C4.7175 11.0217 5.85083 10.625 7.08333 10.625C8.31583 10.625 9.44917 11.0217 10.3771 11.6875C9.44917 12.3533 8.31583 12.75 7.08333 12.75C5.85083 12.75 4.7175 12.3533 3.78958 11.6875ZM11.4325 10.71C10.2354 9.775 8.72667 9.20833 7.08333 9.20833C5.44 9.20833 3.93125 9.775 2.73417 10.71C1.9125 9.72542 1.41667 8.46458 1.41667 7.08333C1.41667 3.9525 3.9525 1.41667 7.08333 1.41667C10.2142 1.41667 12.75 3.9525 12.75 7.08333C12.75 8.46458 12.2542 9.72542 11.4325 10.71Z" fill="black"/>
<path d="M7.08341 2.8335C5.71633 2.8335 4.60425 3.94558 4.60425 5.31266C4.60425 6.67975 5.71633 7.79183 7.08341 7.79183C8.4505 7.79183 9.56258 6.67975 9.56258 5.31266C9.56258 3.94558 8.4505 2.8335 7.08341 2.8335ZM7.08341 6.37516C6.4955 6.37516 6.02091 5.90058 6.02091 5.31266C6.02091 4.72475 6.4955 4.25016 7.08341 4.25016C7.67133 4.25016 8.14592 4.72475 8.14592 5.31266C8.14592 5.90058 7.67133 6.37516 7.08341 6.37516Z" fill="black"/>
</svg>
