<svg width="60" height="37" viewBox="0 0 60 37" fill="none" xmlns="http://www.w3.org/2000/svg">
<g clip-path="url(#clip0_122_4029)">
<path d="M29.3464 15.7446L7.97124 23.3263C5.30841 24.2709 5.30841 28.0367 7.97125 28.9812L29.3463 36.5629C30.0026 36.7957 30.7193 36.7929 31.3738 36.5552L52.2399 28.9734C54.8739 28.0163 54.8739 24.2912 52.2399 23.3341L31.3738 15.7523C30.7193 15.5146 30.0026 15.5118 29.3464 15.7446Z" fill="#F0424B" fill-opacity="0.82"/>
<path d="M29.3464 8.05242L7.97124 15.6342C5.30841 16.5787 5.30841 20.3445 7.97125 21.289L29.3463 28.8708C30.0026 29.1036 30.7193 29.1008 31.3738 28.863L52.2399 21.2813C54.8739 20.3242 54.8739 16.599 52.2399 15.642L31.3738 8.06019C30.7193 7.8224 30.0026 7.81965 29.3464 8.05242Z" fill="#F0424B" fill-opacity="0.82"/>
<path d="M29.3464 0.360033L7.97124 7.94181C5.30841 8.88631 5.30841 12.6521 7.97125 13.5966L29.3463 21.1784C30.0026 21.4112 30.7193 21.4084 31.3738 21.1706L52.2399 13.5889C54.8739 12.6318 54.8739 8.90663 52.2399 7.94957L31.3738 0.367802C30.7193 0.130016 30.0026 0.127269 29.3464 0.360033Z" fill="#F0424B" fill-opacity="0.82"/>
<path d="M25.7416 15.5048C27.6386 15.5048 29.1765 13.0671 29.1765 10.06C29.1765 7.05298 27.6386 4.6153 25.7416 4.6153C23.8445 4.6153 22.3066 7.05298 22.3066 10.06C22.3066 13.0671 23.8445 15.5048 25.7416 15.5048Z" fill="white"/>
<path d="M34.2552 15.5048C36.1523 15.5048 37.6902 13.0671 37.6902 10.06C37.6902 7.05298 36.1523 4.6153 34.2552 4.6153C32.3582 4.6153 30.8203 7.05298 30.8203 10.06C30.8203 13.0671 32.3582 15.5048 34.2552 15.5048Z" fill="white"/>
<path d="M26.6926 10.4618C27.621 10.4618 28.3736 9.26751 28.3736 7.79426C28.3736 6.32101 27.621 5.12671 26.6926 5.12671C25.7643 5.12671 25.0117 6.32101 25.0117 7.79426C25.0117 9.26751 25.7643 10.4618 26.6926 10.4618Z" fill="#101010"/>
<path d="M35.2083 10.4618C36.1366 10.4618 36.8892 9.26751 36.8892 7.79426C36.8892 6.32101 36.1366 5.12671 35.2083 5.12671C34.2799 5.12671 33.5273 6.32101 33.5273 7.79426C33.5273 9.26751 34.2799 10.4618 35.2083 10.4618Z" fill="#101010"/>
</g>
<defs>
<clipPath id="clip0_122_4029">
<rect width="60" height="37" fill="white"/>
</clipPath>
</defs>
</svg>
